<?xml version="1.0" encoding="UTF-8"?>
<svg width="100pt" height="100pt" version="1.1" viewBox="0 0 100 100" xmlns="http://www.w3.org/2000/svg">
 <g fill="#bcbcbc">
  <path d="m89.688 39.688c-3.75-14.375-15.312-25.938-29.844-29.531s-30.312 1.0938-40.312 12.344c-12.344 13.75-13.906 34.375-3.9062 50-0.78125 5.625-1.4062 11.25-2.1875 16.875-0.3125 2.0312 2.1875 3.4375 3.9062 2.9688 5.4688-1.5625 11.094-2.9688 16.562-4.5312 14.844 6.0938 32.031 3.2812 43.906-7.6562 11.094-10.156 15.625-26.094 11.875-40.469zm-10.938 30.156c-9.375 13.75-27.812 18.906-42.969 12.031h-0.15625c-0.625-0.3125-1.4062-0.46875-2.3438-0.3125-4.375 1.25-8.75 2.3438-13.125 3.5938 0.46875-3.75 0.9375-7.3438 1.4062-11.094 0.15625-1.25 0.46875-2.6562-0.15625-3.9062-0.46875-0.78125-1.0938-1.5625-1.5625-2.5-1.0938-1.875-2.0312-3.9062-2.8125-5.9375-2.5-7.1875-2.6562-15.156-0.3125-22.344 4.0625-12.656 15.625-22.188 28.75-23.75 13.594-1.875 27.188 4.6875 34.219 16.094 7.1875 11.719 6.7188 26.719-0.9375 38.125z"/>
  <path d="m71.719 55.156-7.0312-5.4688c-2.1875-1.7188-5.1562-1.4062-7.0312 0.46875l-2.0312 2.0312c-1.5625-0.9375-2.9688-2.0312-4.375-3.2812-1.25-1.25-2.3438-2.8125-3.2812-4.375l2.0312-2.0312c1.875-1.875 2.0312-4.8438 0.46875-7.0312l-5.4688-7.1875c-1.0938-1.5625-2.8125-2.5-4.6875-2.5-1.875-0.15625-3.75 0.625-5 1.875l-6.0938 6.0938c-3.4375 3.4375-4.2188 8.75-2.0312 13.125 2.9688 5.625 6.7188 10.625 11.094 15s9.5312 8.125 15 11.094c1.7188 0.9375 3.4375 1.25 5.1562 1.25 2.8125 0 5.7812-1.0938 7.8125-3.2812l6.0938-6.0938c1.25-1.25 2.0312-3.125 1.875-5 0-1.875-0.9375-3.5938-2.5-4.6875zm-3.75 5.3125-6.0938 6.0938c-1.5625 1.5625-3.9062 1.875-5.7812 0.9375-5-2.6562-9.5312-5.9375-13.594-10s-7.3438-8.5938-10-13.594c-0.9375-1.875-0.625-4.2188 0.9375-5.7812l6.0938-6.0938h0.15625c0.15625 0 0.15625 0 0.15625 0.15625l5 6.5625-2.0312 1.875c-1.5625 1.5625-2.0312 4.0625-0.9375 6.0938 1.25 2.5 2.9688 4.6875 4.8438 6.5625s4.0625 3.5938 6.5625 4.8438c2.0312 1.0938 4.375 0.625 5.9375-0.9375l2.1875-2.1875 6.4062 5s0.15625 0 0.15625 0.15625v0.3125z"/>
 </g>
</svg>
